<?xml version="1.0" encoding="UTF-8" standalone="no"?><!DOCTYPE svg PUBLIC "-//W3C//DTD SVG 1.1//EN" "http://www.w3.org/Graphics/SVG/1.1/DTD/svg11.dtd"><svg width="100%" height="100%" viewBox="0 0 212 58" version="1.1" xmlns="http://www.w3.org/2000/svg" xmlns:xlink="http://www.w3.org/1999/xlink" xml:space="preserve" xmlns:serif="http://www.serif.com/" style="fill-rule:evenodd;clip-rule:evenodd;stroke-linejoin:round;stroke-miterlimit:2;"><g><path d="M12.714,35.19c-2.555,-0 -4.886,-0.346 -6.993,-1.036c-2.106,-0.691 -3.971,-1.658 -5.594,-2.902l2.745,-4.144c1.52,1.07 3.108,1.865 4.766,2.383c1.657,0.483 3.246,0.725 4.765,0.725c2.279,0 4.023,-0.38 5.232,-1.14c1.209,-0.794 1.813,-1.968 1.813,-3.522c-0,-0.933 -0.207,-1.71 -0.622,-2.332c-0.414,-0.621 -1.122,-1.191 -2.123,-1.709c-1.002,-0.518 -2.452,-1.123 -4.352,-1.814l-0.984,-0.362c-2.21,-0.829 -3.988,-1.624 -5.335,-2.383c-1.312,-0.76 -2.383,-1.745 -3.212,-2.953c-0.828,-1.244 -1.243,-2.798 -1.243,-4.663c0,-2.003 0.553,-3.678 1.658,-5.025c1.139,-1.382 2.607,-2.401 4.403,-3.057c1.795,-0.656 3.712,-0.984 5.749,-0.984c4.213,-0 8.064,1.174 11.552,3.522l-2.694,4.145c-1.554,-0.967 -3.022,-1.675 -4.403,-2.124c-1.347,-0.449 -2.849,-0.674 -4.506,-0.674c-1.762,0 -3.16,0.346 -4.196,1.037c-1.036,0.656 -1.554,1.64 -1.554,2.953c-0,0.725 0.19,1.364 0.57,1.917c0.38,0.518 1.036,1.036 1.968,1.554c0.932,0.518 2.262,1.088 3.989,1.709l1.036,0.363c2.244,0.794 4.057,1.572 5.438,2.331c1.382,0.726 2.556,1.762 3.523,3.109c0.967,1.312 1.45,3.022 1.45,5.129c0,2.141 -0.552,3.972 -1.657,5.491c-1.071,1.485 -2.573,2.608 -4.507,3.368c-1.899,0.725 -4.127,1.088 -6.682,1.088Z" style="fill:#0b84cd;fill-rule:nonzero;"/><circle cx="54.206" cy="20.937" r="6.229" style="fill:#0b84cd;"/><circle cx="67.062" cy="23.35" r="1.573" style="fill:#0b84cd;"/><path d="M33.053,24.986l0,10.204l-7.743,0l-0,-34.92l7.743,-0l0,10.558l10.071,-10.563l11.02,-0l-0.002,0.002l3.814,0.001l8.456,7.231l8.795,-7.234l-0.004,9.898l-4.304,3.518l0.008,8.353l-20.669,-17.659l-13.266,13.958l18.88,16.857l-11.967,-0.005l-10.832,-10.199Zm28.405,10.199l9.449,-10.349l0,10.349l-9.449,-0Z" style="fill:#0b84cd;"/><path d="M23.87,57.33c-0.933,0 -1.793,-0.126 -2.58,-0.38c-0.787,-0.266 -1.48,-0.633 -2.08,-1.1l0.88,-1.32c0.533,0.414 1.133,0.727 1.8,0.94c0.68,0.2 1.32,0.3 1.92,0.3c0.96,0 1.687,-0.173 2.18,-0.52c0.507,-0.346 0.76,-0.873 0.76,-1.58c0,-0.413 -0.093,-0.753 -0.28,-1.02c-0.173,-0.266 -0.467,-0.506 -0.88,-0.72c-0.4,-0.226 -0.98,-0.473 -1.74,-0.74l-0.34,-0.12c-0.84,-0.293 -1.52,-0.58 -2.04,-0.86c-0.52,-0.293 -0.94,-0.673 -1.26,-1.14c-0.32,-0.466 -0.48,-1.053 -0.48,-1.76c0,-0.746 0.2,-1.373 0.6,-1.88c0.413,-0.52 0.953,-0.906 1.62,-1.16c0.667,-0.253 1.38,-0.38 2.14,-0.38c0.8,0 1.553,0.1 2.26,0.3c0.72,0.2 1.42,0.527 2.1,0.98l-0.84,1.32c-0.587,-0.373 -1.153,-0.64 -1.7,-0.8c-0.547,-0.173 -1.16,-0.26 -1.84,-0.26c-0.707,0 -1.293,0.147 -1.76,0.44c-0.467,0.294 -0.7,0.747 -0.7,1.36c0,0.32 0.073,0.6 0.22,0.84c0.16,0.24 0.427,0.467 0.8,0.68c0.387,0.214 0.92,0.44 1.6,0.68l0.34,0.12c0.893,0.307 1.607,0.6 2.14,0.88c0.533,0.267 0.993,0.66 1.38,1.18c0.387,0.507 0.58,1.167 0.58,1.98c0,0.814 -0.193,1.5 -0.58,2.06c-0.387,0.547 -0.94,0.967 -1.66,1.26c-0.72,0.28 -1.573,0.42 -2.56,0.42Z" style="fill:#013c92;fill-rule:nonzero;"/><path d="M56.41,44.13l0,1.6l-4.48,0l0,11.36l-1.84,0l0,-11.36l-4.5,0l0,-1.6l10.82,0Z" style="fill:#013c92;fill-rule:nonzero;"/><path d="M79.31,57.33c-1.2,0 -2.2,-0.233 -3,-0.7c-0.8,-0.466 -1.393,-1.106 -1.78,-1.92c-0.387,-0.826 -0.58,-1.76 -0.58,-2.8l0,-7.78l1.84,0l0,7.38c0,2.814 1.213,4.22 3.64,4.22c1.24,0 2.133,-0.353 2.68,-1.06c0.56,-0.72 0.84,-1.733 0.84,-3.04l0,-7.5l1.84,0l0,7.72c0,1.267 -0.24,2.314 -0.72,3.14c-0.48,0.814 -1.133,1.407 -1.96,1.78c-0.813,0.374 -1.747,0.56 -2.8,0.56Z" style="fill:#013c92;fill-rule:nonzero;"/><path d="M107.51,44.13c2.2,0 3.88,0.514 5.04,1.54c1.173,1.027 1.76,2.674 1.76,4.94c0,1.454 -0.3,2.667 -0.9,3.64c-0.587,0.96 -1.413,1.674 -2.48,2.14c-1.067,0.467 -2.32,0.7 -3.76,0.7l-3.56,0l0,-12.96l3.9,0Zm-0.56,11.4c1.173,0 2.153,-0.14 2.94,-0.42c0.787,-0.28 1.4,-0.78 1.84,-1.5c0.44,-0.72 0.66,-1.72 0.66,-3c0,-1.693 -0.393,-2.933 -1.18,-3.72c-0.787,-0.8 -2.007,-1.2 -3.66,-1.2l-2.1,0l0,9.84l1.5,0Z" style="fill:#013c92;fill-rule:nonzero;"/><rect x="132.71" y="44.13" width="1.84" height="12.96" style="fill:#013c92;fill-rule:nonzero;"/><path d="M158.99,57.33c-1.293,0 -2.393,-0.28 -3.3,-0.84c-0.907,-0.573 -1.593,-1.366 -2.06,-2.38c-0.453,-1.013 -0.68,-2.193 -0.68,-3.54c0,-1.493 0.28,-2.74 0.84,-3.74c0.56,-1 1.307,-1.74 2.24,-2.22c0.933,-0.48 1.967,-0.72 3.1,-0.72c1.293,0 2.393,0.287 3.3,0.86c0.907,0.56 1.587,1.347 2.04,2.36c0.467,1.014 0.7,2.194 0.7,3.54c0,1.494 -0.28,2.74 -0.84,3.74c-0.56,1 -1.307,1.74 -2.24,2.22c-0.933,0.48 -1.967,0.72 -3.1,0.72Zm0,-1.56c0.947,0 1.733,-0.213 2.36,-0.64c0.64,-0.44 1.113,-1.04 1.42,-1.8c0.32,-0.76 0.48,-1.646 0.48,-2.66c0,-1.04 -0.153,-1.946 -0.46,-2.72c-0.293,-0.786 -0.747,-1.4 -1.36,-1.84c-0.613,-0.44 -1.38,-0.66 -2.3,-0.66c-0.947,0 -1.74,0.22 -2.38,0.66c-0.627,0.427 -1.1,1.02 -1.42,1.78c-0.307,0.76 -0.46,1.647 -0.46,2.66c0,1.04 0.147,1.954 0.44,2.74c0.307,0.774 0.767,1.38 1.38,1.82c0.613,0.44 1.38,0.66 2.3,0.66Z" style="fill:#013c92;fill-rule:nonzero;"/><path d="M187.19,57.33c-0.933,0 -1.793,-0.126 -2.58,-0.38c-0.787,-0.266 -1.48,-0.633 -2.08,-1.1l0.88,-1.32c0.533,0.414 1.133,0.727 1.8,0.94c0.68,0.2 1.32,0.3 1.92,0.3c0.96,0 1.687,-0.173 2.18,-0.52c0.507,-0.346 0.76,-0.873 0.76,-1.58c0,-0.413 -0.093,-0.753 -0.28,-1.02c-0.173,-0.266 -0.467,-0.506 -0.88,-0.72c-0.4,-0.226 -0.98,-0.473 -1.74,-0.74l-0.34,-0.12c-0.84,-0.293 -1.52,-0.58 -2.04,-0.86c-0.52,-0.293 -0.94,-0.673 -1.26,-1.14c-0.32,-0.466 -0.48,-1.053 -0.48,-1.76c0,-0.746 0.2,-1.373 0.6,-1.88c0.413,-0.52 0.953,-0.906 1.62,-1.16c0.667,-0.253 1.38,-0.38 2.14,-0.38c0.8,0 1.553,0.1 2.26,0.3c0.72,0.2 1.42,0.527 2.1,0.98l-0.84,1.32c-0.587,-0.373 -1.153,-0.64 -1.7,-0.8c-0.547,-0.173 -1.16,-0.26 -1.84,-0.26c-0.707,0 -1.293,0.147 -1.76,0.44c-0.467,0.294 -0.7,0.747 -0.7,1.36c0,0.32 0.073,0.6 0.22,0.84c0.16,0.24 0.427,0.467 0.8,0.68c0.387,0.214 0.92,0.44 1.6,0.68l0.34,0.12c0.893,0.307 1.607,0.6 2.14,0.88c0.533,0.267 0.993,0.66 1.38,1.18c0.387,0.507 0.58,1.167 0.58,1.98c0,0.814 -0.193,1.5 -0.58,2.06c-0.387,0.547 -0.94,0.967 -1.66,1.26c-0.72,0.28 -1.573,0.42 -2.56,0.42Z" style="fill:#013c92;fill-rule:nonzero;"/><g id="LightText"><path id="LIGHT" d="M83.391,29.848l16.615,0l-0,5.334l-22.764,-0l-0,-34.911l6.149,0l0,29.577Z" style="fill:#0b84cd;fill-rule:nonzero;"/><rect x="103.08" y="0.271" width="6.149" height="34.91" style="fill:#0b84cd;fill-rule:nonzero;"/><path d="M172.45,0.265l6.15,-0l-0,34.91l-6.15,0l0,-15.138l-17.801,-0l0,15.138l-6.149,0l-0,-34.91l6.149,-0l0,14.546l17.801,-0l0,-14.546Z" style="fill:#0b84cd;fill-rule:nonzero;"/><path d="M211.073,0.265l0,5.28l-11.543,-0l-0,29.63l-6.15,0l0,-29.63l-11.705,-0l-0,-5.28l29.398,-0Z" style="fill:#0b84cd;fill-rule:nonzero;"/><path d="M143.263,15.596l0,16.523c-2.265,1.071 -4.387,1.848 -6.365,2.331c-1.978,0.484 -4.135,0.725 -6.473,0.725c-3.92,0 -7.12,-0.742 -9.602,-2.227c-2.481,-1.485 -4.297,-3.505 -5.448,-6.06c-1.151,-2.59 -1.726,-5.611 -1.726,-9.064c-0,-4.04 0.755,-7.373 2.265,-9.997c1.547,-2.624 3.597,-4.541 6.15,-5.749c2.553,-1.209 5.412,-1.813 8.577,-1.813c4.423,-0 8.343,1.036 11.759,3.108l-2.589,4.351c-2.697,-1.658 -5.61,-2.487 -8.739,-2.487c-3.776,0 -6.563,1.088 -8.361,3.263c-1.762,2.176 -2.643,5.197 -2.643,9.065c0,4.109 0.827,7.234 2.481,9.375c1.691,2.106 4.406,3.159 8.146,3.159c2.193,0 4.333,-0.362 6.419,-1.087l-0,-8.547l-8.307,0l0.701,-4.869l13.755,0Z" style="fill:#0b84cd;fill-rule:nonzero;"/></g></g></svg>